<svg width="12" height="12" viewBox="0 0 12 12" fill="none" xmlns="http://www.w3.org/2000/svg">
<path d="M7.98575 3.78931C8.99078 3.78931 9.95464 4.18855 10.6653 4.89921C11.376 5.60988 11.7752 6.57374 11.7752 7.57877V11.9998H9.2489V7.57877C9.2489 7.24376 9.11582 6.92247 8.87893 6.68558C8.64205 6.4487 8.32076 6.31561 7.98575 6.31561C7.65074 6.31561 7.32945 6.4487 7.09257 6.68558C6.85568 6.92247 6.7226 7.24376 6.7226 7.57877V11.9998H4.19629V7.57877C4.19629 6.57374 4.59553 5.60988 5.3062 4.89921C6.01686 4.18855 6.98072 3.78931 7.98575 3.78931V3.78931Z" fill="currentColor"/>
<path d="M2.52631 4.42114H0V12.0001H2.52631V4.42114Z" fill="currentColor"/>
<path d="M1.26315 2.52631C1.96077 2.52631 2.52631 1.96077 2.52631 1.26315C2.52631 0.565533 1.96077 0 1.26315 0C0.565533 0 0 0.565533 0 1.26315C0 1.96077 0.565533 2.52631 1.26315 2.52631Z" fill="currentColor"/>
</svg>
