<svg width="14" height="11" viewBox="0 0 14 11" fill="none" xmlns="http://www.w3.org/2000/svg">
<path d="M13.2 0.00616444C12.6254 0.420252 11.9893 0.736962 11.316 0.944099C10.9546 0.519583 10.4744 0.218697 9.94022 0.0821348C9.40604 -0.0544271 8.8437 -0.0200759 8.32925 0.180543C7.8148 0.381161 7.37306 0.738367 7.06379 1.20385C6.75451 1.66933 6.59262 2.22063 6.6 2.78319V3.39622C5.54558 3.42415 4.50076 3.18522 3.55861 2.7007C2.61645 2.21618 1.80619 1.50112 1.2 0.619194C1.2 0.619194 -1.2 6.13646 4.2 8.58857C2.96432 9.44557 1.49229 9.87528 0 9.81463C5.4 12.8798 12 9.81463 12 2.7648C11.9994 2.59404 11.9834 2.4237 11.952 2.25598C12.5644 1.63896 12.9965 0.859938 13.2 0.00616444Z" fill="currentColor"/>
</svg>
 