<svg width="24" height="27" viewBox="0 0 24 27" fill="none" xmlns="http://www.w3.org/2000/svg">
<path fill-rule="evenodd" clip-rule="evenodd" d="M23.8236 24.6887L12.7561 5.96606C12.6007 5.69821 12.3114 5.5 12.0007 5.5C11.6847 5.5 11.3954 5.69821 11.2454 5.96606L0.177863 24.6887C0.0278673 24.9566 -0.0792725 25.3851 0.0760802 25.6476C0.231433 25.9101 0.515353 26.0708 0.826059 26.0708H23.1701C23.4808 26.0708 23.7647 25.9101 23.92 25.6476C24.0807 25.3851 23.9736 24.9512 23.8236 24.6887ZM13.7156 23.4995H10.2871V20.9281H13.7156V23.4995ZM13.7156 19.2139H10.2871V11.4998H13.7156V19.2139Z" fill="black"/>
<mask id="mask0_413_2097" style="mask-type:alpha" maskUnits="userSpaceOnUse" x="0" y="5" width="24" height="22">
<path fill-rule="evenodd" clip-rule="evenodd" d="M23.8236 24.6887L12.7561 5.96606C12.6007 5.69821 12.3114 5.5 12.0007 5.5C11.6847 5.5 11.3954 5.69821 11.2454 5.96606L0.177863 24.6887C0.0278673 24.9566 -0.0792725 25.3851 0.0760802 25.6476C0.231433 25.9101 0.515353 26.0708 0.826059 26.0708H23.1701C23.4808 26.0708 23.7647 25.9101 23.92 25.6476C24.0807 25.3851 23.9736 24.9512 23.8236 24.6887ZM13.7156 23.4995H10.2871V20.9281H13.7156V23.4995ZM13.7156 19.2139H10.2871V11.4998H13.7156V19.2139Z" fill="white"/>
</mask>
<g mask="url(#mask0_413_2097)">
<rect y="3" width="24" height="24" fill="currentColor"/>
</g>
</svg>
